<svg xmlns="http://www.w3.org/2000/svg" width="16" height="16" viewBox="0 0 16 16" fill="none">
<path d="M12.6666 8.66668C12.4898 8.66668 12.3202 8.73692 12.1952 8.86195C12.0702 8.98697 11.9999 9.15654 11.9999 9.33335V9.59335L11.0133 8.60668C10.6649 8.26105 10.194 8.0671 9.70325 8.0671C9.2125 8.0671 8.74164 8.26105 8.39325 8.60668L7.92659 9.07335L6.27325 7.41335C5.91847 7.08008 5.45001 6.89456 4.96325 6.89456C4.47649 6.89456 4.00803 7.08008 3.65325 7.41335L2.66659 8.40668V4.66668C2.66659 4.48987 2.73682 4.3203 2.86185 4.19528C2.98687 4.07025 3.15644 4.00002 3.33325 4.00002H5.99992C6.17673 4.00002 6.3463 3.92978 6.47132 3.80475C6.59635 3.67973 6.66659 3.51016 6.66659 3.33335C6.66659 3.15654 6.59635 2.98697 6.47132 2.86195C6.3463 2.73692 6.17673 2.66668 5.99992 2.66668H3.33325C2.80282 2.66668 2.29411 2.8774 1.91904 3.25247C1.54397 3.62754 1.33325 4.13625 1.33325 4.66668V12.6667C1.33325 13.1971 1.54397 13.7058 1.91904 14.0809C2.29411 14.456 2.80282 14.6667 3.33325 14.6667H11.3333C11.8637 14.6667 12.3724 14.456 12.7475 14.0809C13.1225 13.7058 13.3333 13.1971 13.3333 12.6667V9.33335C13.3333 9.15654 13.263 8.98697 13.138 8.86195C13.013 8.73692 12.8434 8.66668 12.6666 8.66668ZM3.33325 13.3334C3.15644 13.3334 2.98687 13.2631 2.86185 13.1381C2.73682 13.0131 2.66659 12.8435 2.66659 12.6667V10.2867L4.59992 8.36002C4.69786 8.26668 4.82796 8.21462 4.96325 8.21462C5.09854 8.21462 5.22864 8.26668 5.32659 8.36002L7.43992 10.4734L10.2999 13.3334H3.33325ZM11.9999 12.6667C11.9956 12.7958 11.9539 12.9208 11.8799 13.0267L8.87325 10L9.33992 9.54002C9.38771 9.49124 9.44476 9.45248 9.50772 9.42603C9.57069 9.39957 9.63829 9.38594 9.70659 9.38594C9.77488 9.38594 9.84249 9.39957 9.90545 9.42603C9.96841 9.45248 10.0255 9.49124 10.0733 9.54002L11.9999 11.48V12.6667ZM14.4733 6.86002L13.3333 5.71335C13.6158 5.25362 13.7633 4.72361 13.7586 4.18399C13.754 3.64437 13.5975 3.11697 13.3071 2.66216C13.0166 2.20735 12.604 1.84353 12.1163 1.61235C11.6287 1.38117 11.0859 1.29197 10.5499 1.35498C10.014 1.41799 9.50661 1.63064 9.08591 1.96861C8.6652 2.30657 8.34818 2.75617 8.17112 3.26594C7.99407 3.7757 7.96415 4.32502 8.08479 4.851C8.20543 5.37698 8.47175 5.85836 8.85325 6.24002C9.38292 6.77301 10.1018 7.07496 10.8533 7.08002C11.3907 7.0867 11.9193 6.94358 12.3799 6.66668L13.5266 7.82002C13.5886 7.8825 13.6623 7.9321 13.7435 7.96594C13.8248 7.99979 13.9119 8.01722 13.9999 8.01722C14.0879 8.01722 14.1751 7.99979 14.2563 7.96594C14.3375 7.9321 14.4113 7.8825 14.4733 7.82002C14.5378 7.75783 14.5891 7.68327 14.6241 7.6008C14.6592 7.51832 14.6773 7.42963 14.6773 7.34002C14.6773 7.2504 14.6592 7.16171 14.6241 7.07924C14.5891 6.99677 14.5378 6.92221 14.4733 6.86002ZM11.9999 5.33335C11.784 5.55069 11.5085 5.69902 11.2082 5.75954C10.9078 5.82005 10.5963 5.79003 10.3131 5.67327C10.0299 5.55651 9.78773 5.35828 9.61733 5.10371C9.44692 4.84913 9.35595 4.54969 9.35595 4.24335C9.35595 3.93701 9.44692 3.63757 9.61733 3.38299C9.78773 3.12842 10.0299 2.93019 10.3131 2.81343C10.5963 2.69667 10.9078 2.66665 11.2082 2.72716C11.5085 2.78768 11.784 2.93601 11.9999 3.15335C12.2877 3.4431 12.4493 3.83494 12.4493 4.24335C12.4493 4.65176 12.2877 5.0436 11.9999 5.33335Z" fill="black"/>
</svg>