<svg xmlns="http://www.w3.org/2000/svg" width="48" height="48" viewBox="0 0 48 48" fill="none">
<path d="M41.916 30.65C42.324 29.678 41.158 28.85 40.18 29.282C38.2251 30.1401 36.1129 30.5815 33.978 30.578C25.608 30.578 18.824 23.93 18.824 15.728C18.8209 12.9587 19.6077 10.2459 21.092 7.908C21.66 7.012 20.978 5.772 19.938 6.036C11.92 8.082 6 15.226 6 23.724C6 33.818 14.35 42 24.652 42C32.452 42 39.132 37.31 41.916 30.65Z" fill="#121212"/>
<path d="M31.222 6.20601C30.162 5.49801 28.898 6.76201 29.604 7.82201L30.864 9.71201C31.3752 10.4783 31.6479 11.3789 31.6479 12.3C31.6479 13.2212 31.3752 14.1217 30.864 14.888L29.604 16.778C28.898 17.838 30.164 19.102 31.224 18.394L33.112 17.134C33.8783 16.6229 34.7789 16.3501 35.7 16.3501C36.6212 16.3501 37.5217 16.6229 38.288 17.134L40.178 18.394C41.238 19.102 42.502 17.838 41.794 16.778L40.534 14.888C40.0229 14.1217 39.7501 13.2212 39.7501 12.3C39.7501 11.3789 40.0229 10.4783 40.534 9.71201L41.794 7.82201C42.502 6.76201 41.238 5.49801 40.176 6.20601L38.288 7.46601C37.5217 7.97715 36.6212 8.24992 35.7 8.24992C34.7789 8.24992 33.8783 7.97715 33.112 7.46601L31.222 6.20601Z" fill="#121212"/>
</svg>